#!OML:ASF F:\VICON\USERDATA\INSTALL\rory3\rory3.ASF
:FULLY-SPECIFIED
:DEGREES
46
root 0.28047880835644534 15.096482708529436 -14.831420885211285 38.02689358654956 5.106217771940978 -1.5235552912725199
lfemur -78.03844851845865 7.461864130072984 -20.994010024087423
ltibia 81.5436094514505
lfoot -22.834326793031927 18.588374261717995
ltoes -14.858676711574663
rfemur -77.8427349542986 0.6370423578750608 22.396428020298234
rtibia 79.32196588462277
rfoot -29.418793165260595 -20.462898246906274
rtoes -13.257568918641212
lowerback 30.66242814095978 0.705589784201021 -0.5712131176688191
upperback 0.48350939359845535 1.1392672869842289 3.81454163275557
thorax -18.774511323798052 0.6716533750635265 3.488735868791749
lowerneck -22.863622659515123 -2.5410115185215996 -4.600510019344928
upperneck -10.39846760433848 -1.7628803381032556 0.9721156877201496
head -0.18265451448952685 -0.8660037742538392 0.6694055860341005
lclavicle 1.8621407478982628e-16 -2.3543315860626736e-15
lhumerus -29.151972829865482 8.325545085328185 77.06678101449322
lradius 12.317721125751023
lwrist -10.928428578339219
lhand -24.761239612991137 -6.852858230631982
lfingers 7.12502
lthumb 1.386197172282856 23.301503227397266
rclavicle 1.8551445331928842e-16 -2.3559082815621706e-15
rhumerus -28.873501556813988 -18.415093101595343 -70.11305310515307
rradius 26.88468069942652
rwrist 32.45851484675197
rhand -17.83944607486006 -23.325447911149674
rfingers 7.12502
rthumb 8.873104568167872 -53.26064013120352
47
root 0.25232503001197015 15.739140185981773 -13.79468148587787 35.01141275140556 5.910110380081426 -1.6656044911545387
lfemur -67.46026402040839 8.054607024882637 -20.149359852426578
ltibia 74.01185647604342
lfoot -20.606761364980052 16.75212444598666
ltoes -16.10143523078692
rfemur -69.63158461291593 0.18149476161501976 22.554964565829234
rtibia 73.45599124357132
rfoot -27.254524103281398 -19.763690807298207
rtoes -16.58837064889123
lowerback 28.75672767238307 0.52286934332101 -0.5397950078218507
upperback 0.19179482437666318 0.8707532505145974 4.046065009506143
thorax -18.06742304974018 0.5598138571008733 3.784424963827861
lowerneck -21.655017729451817 -2.6042677402711853 -4.794846275109715
upperneck -7.552794555546322 -1.8923002309278034 1.46302448962043
head 0.44494420555650827 -0.9085358871280764 0.8038163983378722
lclavicle 1.8637830596829128e-16 -2.354119776201154e-15
lhumerus -25.720580070517535 4.70884178735748 80.24877435104281
lradius 15.321210276789522
lwrist -3.8889526236337035
lhand -25.42568358164204 -7.584996281245451
lfingers 7.12502
lthumb 0.8861439317419244 22.669135087878153
rclavicle 1.8523029280414892e-16 -2.3563574134613153e-15
rhumerus -27.907829167547987 -16.502699509388624 -70.81920211429153
rradius 28.972682301194574
rwrist 30.349221615960516
rhand -18.612071815204 -23.39863569732753
rfingers 7.12502
rthumb 8.148115068004628 -53.36759157559983
48
root 0.29294378771136353 16.511361314459446 -12.388871415345369 30.409348508534435 5.968130550384639 -1.4791911785658671
lfemur -54.202214764003614 8.935888001405274 -19.18103886152127
ltibia 64.33747043803353
lfoot -16.644092643920107 12.879723486996259
ltoes -16.9238291081605
rfemur -58.57300582080654 -1.0467738040048655 22.276550421698985
rtibia 65.55291449514623
rfoot -23.283916974161638 -17.529638854381446
rtoes -19.991836074810553
lowerback 25.284413247822403 0.39363568650950753 -0.5039061715703497
upperback 0.26758947218411644 0.6550506067092827 4.025006191374616
thorax -16.208262006214877 0.43683072371679516 3.8428587380966657
lowerneck -19.300928714951514 -2.5729411591792166 -4.988869663081731
upperneck -4.285427726171596 -2.01362596371683 1.8150790475419067
head 0.9838788969987844 -0.9574917507783169 0.9092753706584324
lclavicle 1.8656582071133667e-16 -2.353866632197183e-15
lhumerus -23.180305550657305 0.25943165822598235 82.62546607758676
lradius 18.8411267094001
lwrist 4.480864287871745
lhand -25.98383717760889 -8.357701411998843
lfingers 7.12502
lthumb 0.4385549164790732 21.96791470197752
rclavicle 1.8507739108958096e-16 -2.356599195862455e-15
rhumerus -27.91714611962215 -14.115662933994418 -71.04923852591698
rradius 31.148789176245373
rwrist 28.610589787532504
rhand -18.964615759296517 -23.269797678020083
rfingers 7.12502
rthumb 7.708731656693917 -53.309056269892544
49
root 0.3813160625302261 17.345662380277087 -10.769682769417825 25.268177166324783 5.085983196332869 -0.9997450497544241
lfemur -40.253033431265195 9.826568728162698 -18.18503700450168
ltibia 52.875553522221864
lfoot -9.33580594131481 7.026319748813078
ltoes -16.621961070483906
rfemur -46.3357151989236 -2.5010782067168726 21.319351908592473
rtibia 56.60046432465171
rfoot -16.453925709800778 -13.241024983120809
rtoes -21.07821574259116
lowerback 19.92091952427603 0.37059314071353433 -0.44252744962605384
upperback 0.6776587690236076 0.5937689665595485 3.6316548750955615
thorax -12.80865968547875 0.3563417467271525 3.5376853226506175
lowerneck -15.935528472186357 -2.358417203342362 -5.12162740922818
upperneck -0.9811106977857129 -2.045643440891969 2.049704703635153
head 1.3711613717637685 -0.9634130963492111 0.9911538578457482
lclavicle 1.8675823409587858e-16 -2.3536295924090743e-15
lhumerus -21.78695180722747 -4.325517131878666 83.91885909774896
lradius 22.613279842327497
lwrist 11.484603800515732
lhand -26.227734879165972 -8.919256578264783
lfingers 7.12502
lthumb 0.2328670763143963 21.47038129065671
rclavicle 1.8517607506327155e-16 -2.356442488328839e-15
rhumerus -28.823452612196622 -11.23260672358618 -71.02662307480867
rradius 33.355375099022645
rwrist 27.336680231827053
rhand -19.03636645641664 -22.916696743961896
rfingers 7.12502
rthumb 7.388079798349049 -53.08141676379024
50
root 0.49526397720217663 18.619133088530717 -9.00958198734005 19.41295255636809 3.802500418628428 -0.6342119498282082
lfemur -25.866421671623538 9.874438325718035 -16.70703570477799
ltibia 39.23217106988827
lfoot 2.8726320560190057 2.0707629344647085
ltoes -13.319408861275281
rfemur -33.4622774238352 -3.6353770347398395 19.910945112776727
rtibia 46.70085247545791
rfoot -4.778165657625907 -7.820507728364606
rtoes -13.249336838981545
lowerback 14.121685848800185 0.38153436232593896 -0.22639554117707483
upperback 1.4883855219934818 0.603961181626057 3.072310115538338
thorax -8.296782516002429 0.2994074706625736 2.9499799144159873
lowerneck -12.161923660249789 -1.8160007047936666 -5.077786359663936
upperneck 2.23921505363026 -1.7591373852345544 2.1290838516265094
head 1.6468299767692351 -0.810713955458515 1.0346178265150932
lclavicle 1.8708244379841432e-16 -2.3531836941408483e-15
lhumerus -21.16286094828561 -8.29052319468515 84.675005552226
lradius 26.392676351809772
lwrist 16.956027425604308
lhand -26.388386198261312 -9.479964533352815
lfingers 7.12502
lthumb 0.2122996218062343 21.10933499043267
rclavicle 1.8557206375206857e-16 -2.3558132102025843e-15
rhumerus -30.24895785409985 -8.185258108628549 -70.97332882784568
rradius 35.544560409975475
rwrist 26.80037230123673
rhand -19.07527232990028 -22.483719533920677
rfingers 7.12502
rthumb 7.028105554837606 -52.76148674504238
51
root 0.5798883147588502 20.14360384709868 -7.519132810941519 17.257018032356363 2.0138216223731638 -0.2640841107808656
lfemur -17.999488588179496 8.389279164528272 -15.641000039598142
ltibia 30.267551516448016
lfoot 15.258261957508095 1.7657374442346025
ltoes -7.018629690474395
rfemur -26.86120185771548 -3.466517881750814 18.559723094691734
rtibia 40.80796409400114
rfoot 8.757450805839623 -6.796550613677261
rtoes 7.969672108095458
lowerback 7.839726439558644 0.4643919187137592 -0.12483006568459953
upperback 1.9908118701004802 0.7104338233827161 2.4798937827132503
thorax -3.8494796356447023 0.3161623023022772 2.42029826230037
lowerneck -9.23666039563615 -1.0390604613847672 -4.8679430887888735
upperneck 4.896205224070154 -1.1291105362021154 2.1658031836148695
head 1.8796754288841333 -0.46192680901396055 1.069938260341806
lclavicle 1.8707580278499638e-16 -2.3532563683630594e-15
lhumerus -20.99018046557218 -10.869305401469198 84.91307183499421
lradius 29.550368984378288
lwrist 20.125270048735956
lhand -26.493416191195678 -10.06650415534542
lfingers 7.12502
lthumb 0.3347053191807632 20.806535195385003
rclavicle 1.8610164579308588e-16 -2.3549716376844414e-15
rhumerus -32.0223182446548 -5.375762414446539 -71.26417426386176
rradius 37.583605135493656
rwrist 26.68567699891124
rhand -19.18495985351288 -22.193996644977517
rfingers 7.12502
rthumb 6.467126792494383 -52.586951610169194
52
root 0.634499113532891 21.46347524873675 -6.393235825000173 17.222724309160945 0.5275475142642838 -0.5686608597931941
lfemur -17.809445409390133 7.418122349262515 -15.097969908771649
ltibia 32.09959779913248
lfoot 18.084304530932826 1.248911883104114
ltoes -3.139817635500264
rfemur -25.171190606026634 -2.9679540444315804 18.546985293537674
rtibia 40.9867135722237
rfoot 15.30839895461724 -7.047478179122144
rtoes 25.03139945351585
lowerback 3.426355396703184 0.4533074539754436 0.07221979034867332
upperback 2.0635280697171874 0.6929909462723884 2.1753173858836656
thorax -1.3242504205023011 0.29299788657757797 2.0879599850470876
lowerneck -7.9002408770266355 -0.2352170343793667 -4.551513867467577
upperneck 6.849807789042609 -0.3482268394989181 2.2353430883069256
head 2.129477881000561 -0.026653880088194914 1.1297168562172628
lclavicle 1.8706342332815113e-16 -2.3533591083024895e-15
lhumerus -21.10905437673641 -12.05263925184705 84.7152003867387
lradius 32.22039546248917
lwrist 22.320338487482196
lhand -26.48838234198498 -10.569304357429916
lfingers 7.12502
lthumb 0.5737254039940183 20.640891942911903
rclavicle 1.8622117060578227e-16 -2.3547809187538678e-15
rhumerus -33.39983784330039 -3.374334470789993 -71.9738921768868
rradius 38.99821642787167
rwrist 26.856431119234664
rhand -19.608198500651255 -22.38670522142495
rfingers 7.12502
rthumb 5.855046922761062 -52.80042902995168
